<svg xmlns="http://www.w3.org/2000/svg" width="602.43" height="602.43" viewBox="0 0 602.43 602.43"><defs><style>.a{fill:#5d9388;}.b{fill:#3f6b69;}.c{fill:#fff;}</style></defs><title>THREE_BILLOARDS</title><path class="a" d="M602.43,301.21a301.28,301.28,0,0,1-11.74,83.52c-.8,2.79-1.64,5.57-2.53,8.32-.54,1.71-1.1,3.4-1.67,5.1A301,301,0,0,1,301.21,602.43C134.85,602.43,0,467.56,0,301.21S134.85,0,301.21,0,602.43,134.85,602.43,301.21Z"/><path class="b" d="M588.16,393.05c-.54,1.71-1.1,3.4-1.67,5.1a300.84,300.84,0,0,1-243.7,201.43L173.68,430.1,340.24,144.58Z"/><path class="c" d="M297.54,432.39H182.24c-9,0-9.33-.35-9.33-9.39q0-83.72.17-167.41c0-5.47-2-8.66-6-12.52A158.09,158.09,0,0,1,147,218.31c-1.43-2.11.25-7.54,2.09-10.45,6.14-9.74,6.4-9.55-3-15.79a70.41,70.41,0,0,1-25.18-28.14c-2.5-5.15-5.22-10.21-7.58-15.42-2.23-4.91-.17-8.29,5.19-9,.54-.07,1.1-.07,1.66-.09,14.57-.35,29.15,3.57,43.73,3.42,19.78-.22,37.34-7.06,57.12-7.23,25.28-.23,41.82,7.16,78.07,1.5,7-.07,14-.82,21-.88,13.38-.14,22,8.5,30.13,17.39,1.17,1.27,1,4.79.19,6.68-7.12,16-2.15,29.18,9.16,40.87,8.48,8.76,17.52,17,25.71,26,3.3,3.63,5.15,8.64,7.34,13.18,1.18,2.47,1.54,5.31,2.5,7.91,1.57,4.25,3.22,8.4,8.93,4.07.95-.72,2.87-.48,4.26-.22a44.27,44.27,0,0,1,6.92,2c14.45,5.3,13.48,7.75,8.85,19.31-3,7.52-5.08,15.43-7.5,23.19-1.67,5.36-.49,9.79,4.4,13,5.53,3.68,10.74,7.89,16.49,11.16,16.25,9.24,26.32,22.29,27,41.53.32,8.85,5,15,11.59,20.46a53.47,53.47,0,0,1,10.68,12.52,15.51,15.51,0,0,1,.57,16.35,20,20,0,0,0-1.95,5.74c-.88,4.59-1.78,8.51-8.17,6-1-.37-3.92,2.3-4.75,4.11-4.22,9.23-8.15,18.61-12,28-4.55,11.12-4.47,11.15-16.53,11.15-7.57,0-15.15.14-22.72-.09-2.19-.07-5.94-.85-6.17-1.91a10.52,10.52,0,0,1,1.71-7.12c2.62-4,5.95-7.51,8.86-11.33,5.44-7.15,3.52-11.82-5.53-13.23a59.92,59.92,0,0,0-9.38-.59Q354.09,432.36,297.54,432.39Z"/></svg>
