<svg xmlns="http://www.w3.org/2000/svg" width="602.43" height="602.43" viewBox="0 0 602.43 602.43"><defs><style>.a{fill:#5d9388;}.b{fill:#3f6b69;}.c{fill:#a8ccc9;}.d{fill:#fff;}</style></defs><title>call_me</title><path class="a" d="M602.43,301.21A300.9,300.9,0,0,1,301.21,602.43C134.85,602.43,0,467.57,0,301.21S134.85,0,301.21,0,602.43,134.85,602.43,301.21Z"/><path class="b" d="M586,399.71A301.87,301.87,0,0,1,381.71,591.55L189.63,399.05,403.07,216.42Z"/><path class="c" d="M437,345.92c-5.91,32.34-22.47,56.18-48.61,76.78C374.22,433.89,326.7,447,308.09,458c-1.79,1.05-5.47,2.75-6.48,2.74s-4.72-1.77-6.53-2.84c-18.58-11-66.11-24.05-80.3-35.24-26.15-20.61-42.71-44.44-48.61-76.78-8.4-45.93-.91-89.24,29.91-126,15.25-18.18,43.4-28.83,59.92-28,12,.58,40.83,13.22,45.6,15.51v.09c4.77-2.29,33.57-14.93,45.6-15.5,16.52-.79,44.66,9.85,59.91,28C437.93,256.68,445.42,300,437,345.92Z"/><path class="d" d="M299.78,178.6c-1-25.9,16.51-33.71,32.67-37.8,3.63-.91,3.76,1.77,3.57,4.28-.73,10-3.24,19.57-10.72,26.5-6.1,5.65-13.36,10.07-20.18,14.93-3.6,2.56-5.45,1.52-5.35-2.94C299.83,181.21,299.78,178.85,299.78,178.6Z"/><path class="d" d="M304.64,200c.05,4.34,3.23,12-3,12.21-5.58.18-5.92-6.75-6-11.62.45-18.89-6.55-34.58-20.77-46.83-3-2.6-4.82-5.26-3-8.42a14.76,14.76,0,0,1,7.17-5.9c3.62-1.35,6.1,1.24,7.94,4.48A136.35,136.35,0,0,1,304.64,200Z"/></svg>
