<svg xmlns="http://www.w3.org/2000/svg" width="602.43" height="602.43" viewBox="0 0 602.43 602.43"><defs><style>.a{fill:#e66725;}.b{fill:#bf5221;}.c{fill:#f2b08d;}.d{fill:#fff;}</style></defs><title>DARKEST_HOUR</title><path class="a" d="M602.43,301.21A302,302,0,0,1,594.54,370a298.43,298.43,0,0,1-11.07,36.62q-1.77,4.74-3.7,9.43c-1.64,3.94-3.35,7.85-5.14,11.7A302.07,302.07,0,0,1,395,587.53c-3.32,1.08-6.67,2.12-10,3.09-4.4,1.27-8.82,2.44-13.3,3.51q-5.7,1.35-11.49,2.51a302.61,302.61,0,0,1-59,5.79C134.85,602.43,0,467.56,0,301.21S134.85,0,301.21,0,602.43,134.85,602.43,301.21Z"/><path class="b" d="M594.54,370a298.43,298.43,0,0,1-11.07,36.62q-1.77,4.74-3.7,9.43c-1.64,3.94-3.35,7.85-5.14,11.7A302.07,302.07,0,0,1,395,587.53c-3.32,1.08-6.67,2.12-10,3.09-4.4,1.27-8.82,2.44-13.3,3.51q-5.7,1.35-11.49,2.51L108,344l392.14-68.49Z"/><rect class="c" x="296.1" y="248.41" width="103.93" height="102.81"/><circle class="d" cx="347.76" cy="299.82" r="28.46"/><circle class="d" cx="347.76" cy="299.82" r="28.46"/><circle class="d" cx="347.76" cy="299.82" r="28.46"/><path class="d" d="M309.33,265.93a50.55,50.55,0,0,0,0,67.77v17.35H117.72c-11.18,0-20.25-23-20.25-51.28s9.07-51.29,20.25-51.29a7.08,7.08,0,0,1,1.22.09H309.33Z"/><circle class="d" cx="347.76" cy="299.82" r="28.46"/><path class="d" d="M511.17,299.82a35.77,35.77,0,0,1-8.4,23.41A82.93,82.93,0,0,1,476,344a73.15,73.15,0,0,1-31.64,7.26l-59.55-.16v-15.8a51.23,51.23,0,0,0,0-70.87v-15.8l59.55-.16c21.93,0,43,10.06,58.46,28A35.78,35.78,0,0,1,511.17,299.82Z"/></svg>