<svg xmlns="http://www.w3.org/2000/svg" width="602.43" height="602.43" viewBox="0 0 602.43 602.43"><defs><style>.a{fill:#e66725;}.b{fill:#bf5221;}.c{fill:#f2b08d;}.d{fill:#fff;}</style></defs><title>DUNKIRK</title><path class="a" d="M602.43,301.21A303.37,303.37,0,0,1,600.2,338q-1.22,10-3.07,19.73C574.55,476.73,481.94,571,363.77,595.92l-1.26.25a301.9,301.9,0,0,1-61.3,6.26C134.85,602.43,0,467.56,0,301.21S134.85,0,301.21,0,602.43,134.85,602.43,301.21Z"/><polygon class="b" points="305.79 149.8 559.81 404.38 305.79 404.38 305.79 149.8"/><path class="b" d="M600.2,338q-1.22,10-3.07,19.73C574.55,476.73,481.94,571,363.77,595.92l-1.26.25L232.42,465.8h49.29L91.21,274.88l426.12-20Z"/><path class="c" d="M347.22,174.93H255.5A25.94,25.94,0,0,1,241,170.16h0a25.94,25.94,0,0,1,14.55-4.77h91.72a25.94,25.94,0,0,1,14.55,4.77h0A25.94,25.94,0,0,1,347.22,174.93Z"/><path class="d" d="M488.08,294.17c-32.26,19.42-127.18,13.62-155.14,34.11a14.35,14.35,0,0,0-2.58,2.55c-3.56,4.38-4.89,11.46-5.42,15.54-2.65,20.43-8.26,78.31-10.09,98.07-.49,5.31,4.65,6.61,10,6.61h0c13.41,0,26.31-4.77,35,5.45,2.11,2.48,3.68,4.83,4.16,6.73,1.54,6.12-1.31,7.76-6.66,11.13-8.74,5.53-50.36,6.18-50.36,6.18l2.81-.38a77.24,77.24,0,0,1-5.54,13.7c-1,1.88-4.8,1.88-5.78,0A77.66,77.66,0,0,1,293,480.51c0-.11-.07-.24-.09-.35l2.81.38s-41.62-.65-50.36-6.18c-5.35-3.37-8.22-5-6.67-11.13.47-1.9,2.06-4.25,4.16-6.73,8.69-10.22,21.58-5.45,35-5.45h0c5.34,0,10.47-1.3,10-6.61-1.83-19.76-7.44-77.65-10.09-98.07-.53-4.08-1.86-11.17-5.41-15.54a14.35,14.35,0,0,0-2.58-2.55c-28-20.49-122.88-14.69-155.13-34.11C101.73,286.4,81.12,267.67,85,256.3c9-26.14,72.39-30.74,106.23-30.74h86.11l5.78-39.9s7.53-37.6,18.22-37.6c12.18,0,18.22,37.6,18.22,37.6l5.79,39.9h86.22c34,0,97.17,4.6,106.14,30.72C521.64,267.66,501,286.39,488.08,294.17Z"/><line class="c" x1="301.36" y1="327.95" x2="301.36" y2="327.95"/><ellipse class="d" cx="301.21" cy="462" rx="69.56" ry="20.96"/><ellipse class="c" cx="301.21" cy="273.94" rx="18.92" ry="48.07"/></svg>