<svg xmlns="http://www.w3.org/2000/svg" width="602.43" height="602.43" viewBox="0 0 602.43 602.43"><defs><style>.a{fill:#5d9388;}.b{fill:#3f6b69;}.c{fill:#fff;}</style></defs><title>FALLBACK</title><path class="a" d="M602.43,301.21a302,302,0,0,1-7.35,66.4q-3.11,13.83-7.45,27.13A300.18,300.18,0,0,1,549,472.56q-3.81,5.51-7.85,10.82a302.89,302.89,0,0,1-58.29,58.15q-5.49,4.17-11.19,8.08a300,300,0,0,1-78,38.38q-13,4.18-26.56,7.21a302.08,302.08,0,0,1-65.85,7.23C134.85,602.43,0,467.56,0,301.21S134.85,0,301.21,0,602.43,134.85,602.43,301.21Z"/><path class="b" d="M595.08,367.61q-3.11,13.83-7.45,27.13A300.18,300.18,0,0,1,549,472.56q-3.81,5.51-7.85,10.82a302.89,302.89,0,0,1-58.29,58.15q-5.49,4.17-11.19,8.08a300,300,0,0,1-78,38.38q-13,4.18-26.56,7.21L112.7,340.29l75.23-78.4,76,76.15L337,261.89l77.77,78,74.82-78Z"/><circle class="c" cx="301.43" cy="301.32" r="54.69"/><circle class="c" cx="150.61" cy="301.32" r="54.69"/><circle class="c" cx="452.26" cy="301.32" r="54.69"/></svg>
