<svg xmlns="http://www.w3.org/2000/svg" width="602.43" height="602.43" viewBox="0 0 602.43 602.43"><defs><style>.a{fill:#e66725;}.b{fill:#fff;}.c{fill:#bf5221;}.d{fill:#528e86;}.e{fill:#f2b08d;}</style></defs><title>GET_OUT</title><path class="a" d="M602.43,301.21A300.9,300.9,0,0,1,301.21,602.43C134.85,602.43,0,467.57,0,301.21S134.85,0,301.21,0,602.43,134.85,602.43,301.21Z"/><path class="b" d="M215.94,237.61c10.91,11.47,22.28,21.78,24.58,31.2,1.43,5.89,2.11,19.13-.76,21.86-7.47,7.1-33.14-8.72-50.85-27.36-12.49-13.13-16.68-23.47-16.71-33.26a43.19,43.19,0,0,1,3.05-16.73S198.22,219,215.94,237.61Z"/><path class="c" d="M591.9,380.41A301.87,301.87,0,0,1,393.69,588L267.77,461.77l64.45-145.69,94.09-101.62Z"/><path class="d" d="M148.73,58.8l1.38.61-1.28-.72Z"/><path class="b" d="M386.48,237.49c-10.9,11.47-22.28,21.78-24.57,31.2-1.43,5.89-2.11,19.13.76,21.86,7.47,7.1,33.13-8.72,50.85-27.36,12.49-13.13,16.67-23.47,16.7-33.26a43.19,43.19,0,0,0-3.05-16.73S404.2,218.85,386.48,237.49Z"/><path class="e" d="M204.73,55.79s-33.37,6.83-44.65,27.15c-9.46,17-21.55,57.24-15.44,75.86,3,9.16,17.4,24,26,27.76,59.47,25.86,90.93,72.22,90.93,72.22l8.62-18.64s-4.85-6-5.2-8.49c-2.84-20.23,6.25-61.77,6.25-61.77l-22.71,44.55s-59.12-38.67-64.68-48c-3.32-5.59.46-21.85,2.39-28.11,5.64-18.23,42.47-60.51,42.47-60.51s-27.23,13.61-42.56,30.26c-12.11,13.15-25,41.28-25,41.28s-3.42-36.95,12.53-61.67C186.14,68.35,204.73,55.79,204.73,55.79Z"/><path class="e" d="M397.7,55.68s33.36,6.83,44.65,27.15c9.46,17,21.54,57.24,15.44,75.85-3,9.17-17.4,24-26,27.77-59.47,25.86-90.93,72.22-90.93,72.22L332.23,240s4.85-6,5.2-8.49c2.85-20.23-6.24-61.77-6.24-61.77l22.71,44.55s59.11-38.67,64.67-48c3.33-5.59-.45-21.85-2.39-28.11-5.64-18.23-42.46-60.51-42.46-60.51S401,91.3,416.28,108c12.1,13.15,25,41.28,25,41.28s3.41-36.95-12.54-61.67C416.28,68.24,397.7,55.68,397.7,55.68Z"/><path class="b" d="M340.61,455.62c-2.72,4.78-21.06,23.44-39.4,23.47s-36.68-18.57-39.39-23.35c-7.4-13-1.33-50.34-2.92-59.74-3.09-18.46-42-86-34-125.89.63-3.13,2.56-6.95,5.11-10.91a81.25,81.25,0,0,1,42.47-32.8c.51-.18,1-.35,1.56-.52a89.27,89.27,0,0,1,54.33-.06l1.4.46a81.19,81.19,0,0,1,42.62,32.85c2.53,3.94,4.45,7.74,5.08,10.86,8,39.9-30.88,107.44-34,125.9C341.94,405.28,348,442.63,340.61,455.62Z"/></svg>