<svg xmlns="http://www.w3.org/2000/svg" width="602.43" height="602.43" viewBox="0 0 602.43 602.43"><defs><style>.a{fill:#e66725;}.b{fill:#bf5221;}.c{fill:#f2b08d;}.d{fill:#fff;}</style></defs><title>lady_bird</title><path class="a" d="M602.43,301.21A300.9,300.9,0,0,1,301.21,602.43C134.85,602.43,0,467.57,0,301.21S134.85,0,301.21,0,602.43,134.85,602.43,301.21Z"/><path class="b" d="M589.34,389.31a301.9,301.9,0,0,1-199.7,199.93L276.65,476H327V404L190,266.66H327V126.42Z"/><path class="c" d="M368.66,195.9s.48,7.57.31,10.86,2.46,10.49,2.46,10.49l4.18-.54s-4.38-.69-4.7-10-.17-27.45-.17-27.45Z"/><rect class="d" x="276.65" y="126.42" width="50.38" height="349.58"/><rect class="d" x="276.65" y="128.64" width="50.38" height="225.66" transform="translate(543.31 -60.37) rotate(90)"/><path class="c" d="M293.23,182.55s29.82,2.54,40.34,4.78c6.38,1.37,19.62,5.67,21.82,7.06,10.84,6.83,28.73.81,39.26-6.55,4.62-3.23,12.85-9,13.74-17.66.52-5.09-1.89-7.12-1.31-11.78s6.61-10.7,19-17a41.34,41.34,0,0,1-14.43-4.56s-10.6-8.32-20.41-5.7-10.47,16.93-14.58,20c-3.3,2.5-9.38,2.79-15.92,6.72,0,0-15.3,11-31.53,16.61S293.23,182.55,293.23,182.55Z"/><path class="c" d="M358.16,196.79s-.5,6.85-1.09,9.79,1.09,9.7,1.09,9.7h4.21s-4.26-1.13-3.36-9.52,3.36-24.67,3.36-24.67Z"/></svg>