<svg xmlns="http://www.w3.org/2000/svg" width="1720.3" height="2196" viewBox="0 0 1720.3 2196"><defs><style>.a{fill:#d75d27;}.b{fill:#9f3e1a;}.c{font-size:214.95px;font-family:RobotoCondensed-Bold, Roboto Condensed;font-weight:700;}.c,.f{fill:#fff;}.d{letter-spacing:-0.02em;}.e{letter-spacing:-0.02em;}</style></defs><title>logo_full</title><rect class="a" width="1720.3" height="2196"/><polygon class="b" points="1718.65 1036.64 1719.29 1922 508.31 710.3 557.15 557 1218.15 556 1250.59 568.56 1718.65 1036.64"/><polygon class="b" points="1331.15 975 860.15 975 469.31 583.3 565.15 416 577.94 417.07 610.15 449.27 762.15 449.27 784.15 451 987.01 451.14 1111.15 575.27 1331.15 975"/><text class="c" transform="translate(505.81 710.76)"><tspan class="d">A</tspan><tspan class="e" x="124.27" y="0">W</tspan><tspan x="280.75" y="0">ARDS</tspan></text><path class="b" d="M893.79,576.3c0,16.28,24.94,19.71,37.15-1.14l13-22.32L930.15,549Z"/><polygon class="b" points="791.01 415.14 828.01 452.14 757.15 452.14 791.01 415.14"/><path class="f" d="M981.05,496.86l-1.14,1.31c-14,16.13-25.89,26.56-39.24,32.27l46.43-79.51h-17l-30,52.14c-13,12-23.13,18.73-26.39,17.25-4.24-1.78,0-8.13,2.11-11.73L949,450.93H932l-26.56,45.93-1.14,1.31A106.09,106.09,0,0,1,884,516.59c5.38-16.14,4.23-40.89,14.66-62.57l-12.71-6.82c-7,9.61-22.33,31.77-37.63,49.66l-1.14,1.31c-12.23,14.18-24.1,25.41-31.6,25.41-3.76,0-5.88-2.59-1.95-9.28L841,466.4h-9.61c.64-7.17-6.69-17.09-17.75-17.09-9.14,0-21.85,7.17-29,19.54l-16.25,28s0,0-.06,0l-1.14,1.31c-12.21,14.18-24.11,25.41-31.6,25.41-3.74,0-5.86-2.59-1.95-9.28l36.34-63.37h13.85l4.88-8.14h-14l16-27.7h-17l-16,27.7h-15.3l-4.9,8.14H753l-26.53,45.93h0l-1.14,1.31c-12.23,14.18-24.11,25.41-31.6,25.41-3.76,0-5.88-2.59-1.95-9.28l24.41-42.83c7.33-12.88.33-22.16-9.11-22.16-7.33,0-15,3.9-23.47,12.71l6.36-11.09H673l-26.53,45.93h0l-1.14,1.31c-12.21,14.18-24.11,25.41-31.6,25.41-3.74,0-5.86-2.59-1.95-9.28l27.36-47.9h-9.61c.67-7.17-6.66-17.09-17.75-17.09-9.12,0-21.83,7.17-29,19.54l-16.25,28s0,0-.05,0l-1.14,1.31c-16.78,19.39-35.2,24.44-48.72,25.41,11.57-6,25.58-15.63,34.22-30.46L578,446.05c19.54-33.89-17.11-44.81-39.26-6.35L468.65,561.37c-13,22.66,13.05,40.75,31.13,9L512.49,548a21.08,21.08,0,0,0,2-17.11c11.93-.69,26.92-3.42,41.53-13.18-1.65,9.14,3.76,16.28,14.52,16.28,6.85,0,15.33-4.41,23.46-11.07.81,6.52,6,11.07,14.66,11.07,6.91,0,14.3-3.6,21.68-9.26l-4.4,7.64H643l25.89-45.12c25.92-32.44,37.49-28.2,30.16-15.66L677,509.9C669.87,522.44,674.91,534,688.6,534c8.55,0,17.92-5.58,27.08-13.66-.25,7.86,5.1,13.66,14.8,13.66,8.56,0,17.92-5.58,27.09-13.66-.28,7.86,5.1,13.66,14.8,13.66,6.83,0,15.3-4.41,23.44-11.07.83,6.52,6,11.07,14.66,11.07,14,0,30.15-15,44.17-31.27,9.61-11.09,18.09-23,24.11-31-6.69,17.61-3.1,49.21-19.23,49.21-5.69,0-8-6.21-8-6.21L841,520.32A18.48,18.48,0,0,0,859.52,534c1.64,0,3.09-.17,4.73-.31.17,0,.34-.17.48-.17,10.25-1.36,20.48-6.74,29.71-14-1.65,8.87,2.67,14.5,10.86,14.5s17.45-6.83,25.09-13.69l-9.28,16c-23,6.86-37.32,16.31-37.32,29,0,16.28,24.94,19.71,37.15-1.14l13-22.32c17.59-5.55,34.86-17.59,53.43-39.1A14.85,14.85,0,0,0,981.05,496.86ZM502.38,544l-14.16,24.91c-5.88,10.12-12.88,7.19-5.88-4.71l19.23-32.91H503C505.8,533,505.8,537.6,502.38,544Zm6-24.61,45.93-78.84c9.14-15.81,20.85-15.16,12.54.16L540.5,486.43C533,499.31,521.77,513.5,508.42,519.35Zm94.48-19.54c-10.26,16.11-20.35,23.77-27.37,23.77-3.73,0-5.85-2.59-1.95-9.28l23.63-41.21c9.12-15.81,27.2-11.74,18.9,3.59Zm201.88,0c-10.25,16.11-20.37,23.77-27.37,23.77-3.76,0-5.88-2.59-1.95-9.28l23.61-41.21c9.14-15.81,27.2-11.74,18.89,3.59Zm102,61.56c-3.59,6.36-9.28,5.38-9.28.84s4.07-9.45,17.08-14.52Z"/></svg>