<svg xmlns="http://www.w3.org/2000/svg" xmlns:xlink="http://www.w3.org/1999/xlink" width="2173" height="2813" viewBox="0 0 2173 2813"><defs><style>.a{fill:#d75d27;}.b{fill:#9f3e1a;}.c{fill:#fff;}.d{fill:url(#a);}</style><linearGradient id="a" x1="2394.32" y1="1927.68" x2="1402.84" y2="936.2" gradientUnits="userSpaceOnUse"><stop offset="0.55" stop-color="#d75d26"/><stop offset="0.97" stop-color="#9f3e1a"/></linearGradient></defs><title>Asset 6</title><rect class="a" width="2172" height="2813"/><polygon class="b" points="2157.69 1249.34 1715.37 1691.66 734.16 710.3 783 557 1444 556 1476.44 568.56 2157.69 1249.34"/><polygon class="b" points="1557 975 1086 975 695.16 583.3 791 416 803.79 417.07 836 449.27 988 449.27 1010 451 1212.86 451.14 1337 575.27 1557 975"/><path class="c" d="M816.88,679.48H774.79l-8.18,31.28H734l47.75-152.82H810L858,710.76H825.07Zm-35.37-25.71h28.55L795.79,599.3Z"/><path class="c" d="M967.49,654l14.48-96h30.55L985.33,710.76h-31l-17.84-90-17.63,90H887.83L860.54,557.94h30.75l14.38,95.93,18-95.93h25.92Z"/><path class="c" d="M1097.63,679.48h-42.09l-8.18,31.28h-32.64l47.75-152.82h28.24l48.06,152.82h-33Zm-35.37-25.71h28.55l-14.27-54.47Z"/><path class="c" d="M1199.33,654.92H1184v55.84h-30.86V557.94h49.23q23.19,0,35.84,12t12.64,34.16q0,30.45-22.14,42.62l26.76,62.55v1.47h-33.16ZM1184,629.21h17.53q9.23,0,13.85-6.14t4.62-16.43q0-23-18-23h-18Z"/><path class="c" d="M1272.06,710.76V557.94h40.41q26.76,0,42.67,17t16.21,46.6v24.77q0,30.12-15.9,47.28t-43.82,17.16Zm30.86-127.1V685.15h9.24q15.42,0,21.72-8.14t6.62-28.07V622.39q0-21.42-6-29.86t-20.36-8.87Z"/><path class="c" d="M1458,670.67q0-9.34-4.77-14.12t-17.37-9.92q-23-8.71-33.06-20.41a41,41,0,0,1-10.08-27.66q0-19.3,13.7-31t34.79-11.7a52,52,0,0,1,25.08,5.93,41.06,41.06,0,0,1,17,16.74,50.12,50.12,0,0,1,5.93,24.56h-30.75q0-10.71-4.56-16.33t-13.17-5.61q-8.09,0-12.6,4.78t-4.51,12.85a15.83,15.83,0,0,0,5,11.39q5,5.08,17.84,10.55,22.35,8.09,32.48,19.83t10.13,29.92q0,19.93-12.7,31.17t-34.53,11.23a59.39,59.39,0,0,1-27-6.09,45.67,45.67,0,0,1-19.05-17.42Q1389,678,1389,662.58h31q0,13.23,5.14,19.21t16.79,6Q1458,687.77,1458,670.67Z"/><path class="b" d="M1119.64,576.3c0,16.28,24.94,19.71,37.15-1.14l13-22.32L1156,549Z"/><polygon class="b" points="1016.86 415.14 1053.86 452.14 983 452.14 1016.86 415.14"/><path class="c" d="M1206.9,496.86l-1.14,1.31c-14,16.13-25.89,26.56-39.24,32.27L1213,450.93h-17l-30,52.14c-13,12-23.13,18.73-26.39,17.25-4.24-1.78,0-8.13,2.11-11.73l33.08-57.66h-16.94l-26.56,45.93-1.14,1.31a105.8,105.8,0,0,1-20.37,18.42c5.38-16.14,4.23-40.89,14.66-62.57l-12.71-6.82c-7,9.61-22.33,31.77-37.63,49.66l-1.14,1.31c-12.23,14.18-24.1,25.41-31.6,25.41-3.76,0-5.88-2.59-2-9.28l27.37-47.9h-9.62c.64-7.17-6.69-17.09-17.75-17.09-9.14,0-21.85,7.17-29,19.54l-16.25,28s0,0-.06,0L993,498.17c-12.21,14.18-24.11,25.41-31.6,25.41-3.74,0-5.86-2.59-2-9.28l36.34-63.37h13.85l4.88-8.14h-14l16-27.7h-17l-16,27.7h-15.3l-4.9,8.14h15.49l-26.53,45.93h0l-1.14,1.31c-12.23,14.18-24.11,25.41-31.6,25.41-3.76,0-5.88-2.59-1.95-9.28L942,471.47c7.33-12.88.33-22.16-9.11-22.16-7.33,0-15,3.9-23.47,12.71l6.36-11.09h-17l-26.53,45.93h0l-1.14,1.31c-12.21,14.18-24.11,25.41-31.6,25.41-3.74,0-5.86-2.59-2-9.28l27.36-47.9h-9.61c.67-7.17-6.66-17.09-17.75-17.09-9.12,0-21.83,7.17-29,19.54l-16.25,28s0,0-.05,0l-1.14,1.31c-16.78,19.39-35.2,24.44-48.72,25.41,11.57-6,25.59-15.63,34.22-30.46l27.2-47.07c19.54-33.89-17.11-44.81-39.26-6.35L694.5,561.37c-13,22.66,13,40.75,31.13,9L738.34,548a21.08,21.08,0,0,0,1.95-17.11c11.93-.69,26.92-3.42,41.53-13.18-1.65,9.14,3.76,16.28,14.52,16.28,6.85,0,15.33-4.41,23.46-11.07.81,6.52,6,11.07,14.66,11.07,6.91,0,14.3-3.6,21.68-9.26l-4.4,7.64h17.11l25.89-45.12c25.92-32.44,37.49-28.2,30.16-15.66l-22,38.29c-7.16,12.54-2.12,24.11,11.57,24.11,8.55,0,17.92-5.58,27.08-13.66-.25,7.86,5.1,13.66,14.8,13.66,8.56,0,17.92-5.58,27.09-13.66-.28,7.86,5.1,13.66,14.8,13.66,6.83,0,15.3-4.41,23.44-11.07.83,6.52,6,11.07,14.66,11.07,14,0,30.15-15,44.17-31.27,9.61-11.09,18.09-23,24.11-31-6.69,17.61-3.1,49.21-19.23,49.21-5.69,0-8-6.21-8-6.21l-10.59,5.54S1069.9,534,1085.37,534c1.64,0,3.09-.17,4.73-.31.17,0,.34-.17.48-.17,10.25-1.36,20.48-6.74,29.71-14-1.65,8.87,2.67,14.5,10.86,14.5s17.45-6.83,25.09-13.69l-9.28,16c-23,6.86-37.32,16.31-37.32,29,0,16.28,24.94,19.71,37.15-1.14l13-22.32c17.59-5.55,34.87-17.59,53.43-39.1A14.85,14.85,0,0,0,1206.9,496.86ZM728.23,544l-14.16,24.91c-5.88,10.12-12.88,7.19-5.88-4.71l19.23-32.91h1.48C731.65,533,731.65,537.6,728.23,544Zm6-24.61,45.93-78.84c9.14-15.81,20.85-15.16,12.54.16l-26.39,45.76C758.85,499.31,747.62,513.5,734.27,519.35Zm94.48-19.54c-10.26,16.11-20.35,23.77-27.37,23.77-3.73,0-5.85-2.59-2-9.28l23.63-41.21c9.12-15.81,27.2-11.74,18.9,3.59Zm201.88,0c-10.25,16.11-20.37,23.77-27.37,23.77-3.76,0-5.88-2.59-2-9.28l23.61-41.21c9.14-15.81,27.2-11.74,18.89,3.59Zm102,61.56c-3.59,6.36-9.28,5.38-9.28.84s4.07-9.45,17.08-14.52Z"/><polyline class="d" points="2173 2149 1181.16 1157.88 1623.48 715.56 2159 1249"/></svg>
