<svg xmlns="http://www.w3.org/2000/svg" width="602.43" height="602.43" viewBox="0 0 602.43 602.43"><defs><style>.a{fill:#5d9388;}.b{fill:#3f6b69;}.c{fill:#fff;}.d{fill:#a8ccc9;}</style></defs><title>phantom_thread</title><path class="a" d="M602.43,301.21a303.8,303.8,0,0,1-1.6,31.22C589.27,444.74,516,538.75,415.49,580a300.37,300.37,0,0,1-114.28,22.44C134.85,602.43,0,467.57,0,301.21S134.85,0,301.21,0,602.43,134.85,602.43,301.21Z"/><path class="b" d="M600.83,332.43C589.27,444.74,516,538.75,415.49,580L291.75,456l11.79-192.36L430.06,161.28Z"/><path class="c" d="M210.31,255.54C273.14,301.7,277.4,319.41,286.09,365c11.06,58.1-8.65,74.56,6.51,91.89,7,8,44.4,10.54,42.69,0-9.34-57.5-6.51-76.7,25.33-157.74s60.05-90.44,62.95-97,0-19.53-12.3-20.26-44.65,9.43-71.39,34.66C312.78,242.16,258.79,255.54,210.31,255.54Z"/><path class="d" d="M295.84,355.32s-10.66-36.27-22.7-53.62c-8.43-12.15-42.89-42.81-42.89-42.81s16.39-4.11,21.27-1.95c11.89,5.26,24.14,26.31,30.8,37.48C292.35,311.26,295.84,355.32,295.84,355.32Z"/><path class="d" d="M354.94,286.59s8.22-22.7,17.54-42.18c6-12.64,13.94-22.91,17.73-28.2,11.69-16.3,34.39-25.65,34.39-25.65s-14.41-8.66-20.36-7.6c-13.59,2.43-27.74,32.73-33.85,46.7C364.13,244,354.94,286.59,354.94,286.59Z"/><path class="d" d="M336.35,310.4s14-58.72,22.59-79.73,32.39-48.73,32.39-48.73l-37.27,22.62s-10.85,33.29-12.64,42.63C338.64,261.74,336.35,310.4,336.35,310.4Z"/><path class="d" d="M323.2,338.58s1.21-33.9,2.64-58.25,9.3-50.14,14-63.73l-36.34,18.84s10.26,33.88,12.92,47C319.26,296.27,323.2,338.58,323.2,338.58Z"/><path class="d" d="M310.6,350.58s-2.86-48.05-4.25-57.23c-3-19.74-23.19-56-23.19-56l-19.08,8.08s25.6,30.28,32.2,49C301.51,309.24,310.6,350.58,310.6,350.58Z"/><path class="c" d="M194.92,160.54c27-2.58,53.89,15,72.23,18.19,17.76,3.14,63.23-5.08,71.76-7.34,11.39-3,38.35-27.52,65.12-22.44s38.35,21.65,36.18,35.43-15.83,27.68-20.14,21.67c-3.7-5.16-4.28-30.45-28.74-17.85-47.84,24.65-111.86,80.29-167.3,75.07-33.95-3.2-77.42-13-70.22-67.58C155.58,182.28,181.87,161.79,194.92,160.54Z"/></svg>
