<svg xmlns="http://www.w3.org/2000/svg" width="602.43" height="602.43" viewBox="0 0 602.43 602.43"><defs><style>.a{fill:#e66725;}.b{fill:#bf5221;}.c{fill:#fff;}.d{fill:#f2b08d;}</style></defs><title>shape_of_water</title><path class="a" d="M602.43,301.21a300.82,300.82,0,0,1-14.08,91.27l0,0C556.08,494,471.49,572.23,366.24,595.39c-1.46.31-2.93.63-4.41.93a301.94,301.94,0,0,1-60.62,6.11C134.85,602.43,0,467.57,0,301.21S134.85,0,301.21,0,602.43,134.85,602.43,301.21Z"/><path class="b" d="M588.35,392.48l0,0C556.08,494,471.49,572.23,366.24,595.39L183.6,412.4H356.46V160.14Z"/><path class="c" d="M411.66,414.56c-20.62,22.63-73.13,40.81-113.27,40.81s-92.65-18.18-113.27-40.81c-16.09-17.65-39.75-88.07-39.75-88.07l153-52,153,52S427.75,396.91,411.66,414.56Z"/><path class="d" d="M400.91,394.65c-15.44,26.16-62.9,65.56-100.5,65.56s-88.31-38.89-104.54-65.56c-12.81-21-33.63-100.24-33.63-100.24L298.39,242.1l136.15,52.31S413.44,373.41,400.91,394.65Z"/><path class="c" d="M411.36,301.21c0,38.86-17.17,66.46-33.73,93.57-19,31.11-43.16,65.91-77.22,65.91s-58.2-34.8-77.21-65.91c-16.57-27.11-33.73-54.71-33.73-93.57,0-35,4.71-68,19.57-96,20.55-38.72,54.38-63.43,91.37-63.43s70.82,24.71,91.38,63.43C406.64,233.16,411.36,266.21,411.36,301.21Z"/><path class="d" d="M257.35,253c14.28,14.86,11.09,29,5.09,35.42-6.21,6.67-21.23,11.1-35.52-3.76s-19-30.47-10.64-39.21S243.07,238.09,257.35,253Z"/><path class="d" d="M343.48,253c-14.28,14.86-11.09,29-5.1,35.42,6.22,6.67,21.24,11.1,35.52-3.76S393,254.14,384.55,245.4,357.76,238.09,343.48,253Z"/><path class="d" d="M282.41,197.12S251.94,179,240.6,176.85c-3.42-.65-13.86,1.06-13.86,1.06l9.43-25.59s14.23,8.81,18.4,12.54C262.48,171.92,282.41,197.12,282.41,197.12Z"/><path class="d" d="M318.41,197.12s30.43-18.41,41.81-20.49c3.29-.6,13.31,1.28,13.31,1.28l-9.43-25.59s-14,8.78-18.13,12.48C338.13,171.88,318.41,197.12,318.41,197.12Z"/><path class="d" d="M342,407.87h0a258.78,258.78,0,0,0-81.83,0h0a56.27,56.27,0,0,1,81.83,0Z"/></svg>