<svg xmlns="http://www.w3.org/2000/svg" width="602.43" height="602.43" viewBox="0 0 602.43 602.43"><defs><style>.a{fill:#5d9388;}.b{fill:#3f6b69;}.c{fill:#a8ccc9;}.d{fill:#fff;}</style></defs><title>the_post</title><path class="a" d="M602.43,301.21a302.39,302.39,0,0,1-3.89,48.46C576.1,488.52,458.73,595.56,315.16,602.11q-6.93.32-14,.32C134.85,602.43,0,467.57,0,301.21S134.85,0,301.21,0,602.43,134.85,602.43,301.21Z"/><path class="b" d="M598.54,349.67C576.1,488.52,458.73,595.56,315.16,602.11L140.47,427l322-213.73Z"/><rect class="c" x="166.94" y="206.77" width="299.84" height="223.32" rx="16.17" ry="16.17"/><rect class="d" x="134.62" y="172.33" width="299.84" height="257.76" rx="16.17" ry="16.17"/><path class="d" d="M434.45,413.93a16.15,16.15,0,0,0,16.16,16.16H412.09V413.93Z"/><rect class="c" x="166.94" y="200.2" width="233.29" height="34.71"/><rect class="c" x="293.44" y="254.94" width="106.79" height="14.07"/><rect class="c" x="293.44" y="285.5" width="106.79" height="14.07"/><rect class="c" x="293.44" y="316.07" width="106.79" height="14.07"/><rect class="c" x="293.44" y="346.63" width="106.79" height="14.07"/><rect class="c" x="293.44" y="377.2" width="106.79" height="14.07"/><rect class="c" x="166.94" y="254.94" width="105.08" height="136.33"/></svg>
